<svg width="25" height="24" viewBox="0 0 25 24" fill="none" xmlns="http://www.w3.org/2000/svg">
<g id="left-ico">
<path id="Vector" d="M19.5 2H5.5C4.70435 2 3.94129 2.31607 3.37868 2.87868C2.81607 3.44129 2.5 4.20435 2.5 5V19C2.5 19.7956 2.81607 20.5587 3.37868 21.1213C3.94129 21.6839 4.70435 22 5.5 22H19.5C20.2956 22 21.0587 21.6839 21.6213 21.1213C22.1839 20.5587 22.5 19.7956 22.5 19V5C22.5 4.20435 22.1839 3.44129 21.6213 2.87868C21.0587 2.31607 20.2956 2 19.5 2ZM20.5 19C20.5 19.2652 20.3946 19.5196 20.2071 19.7071C20.0196 19.8946 19.7652 20 19.5 20H5.5C5.23478 20 4.98043 19.8946 4.79289 19.7071C4.60536 19.5196 4.5 19.2652 4.5 19V5C4.5 4.73478 4.60536 4.48043 4.79289 4.29289C4.98043 4.10536 5.23478 4 5.5 4H19.5C19.7652 4 20.0196 4.10536 20.2071 4.29289C20.3946 4.48043 20.5 4.73478 20.5 5V19ZM17.5 9H15.5V7C15.5 6.73478 15.3946 6.48043 15.2071 6.29289C15.0196 6.10536 14.7652 6 14.5 6H10.5C10.2348 6 9.98043 6.10536 9.79289 6.29289C9.60536 6.48043 9.5 6.73478 9.5 7V9H7.5C7.23478 9 6.98043 9.10536 6.79289 9.29289C6.60536 9.48043 6.5 9.73478 6.5 10V14C6.5 14.2652 6.60536 14.5196 6.79289 14.7071C6.98043 14.8946 7.23478 15 7.5 15H9.5V17C9.5 17.2652 9.60536 17.5196 9.79289 17.7071C9.98043 17.8946 10.2348 18 10.5 18H14.5C14.7652 18 15.0196 17.8946 15.2071 17.7071C15.3946 17.5196 15.5 17.2652 15.5 17V15H17.5C17.7652 15 18.0196 14.8946 18.2071 14.7071C18.3946 14.5196 18.5 14.2652 18.5 14V10C18.5 9.73478 18.3946 9.48043 18.2071 9.29289C18.0196 9.10536 17.7652 9 17.5 9ZM16.5 13H14.5C14.2348 13 13.9804 13.1054 13.7929 13.2929C13.6054 13.4804 13.5 13.7348 13.5 14V16H11.5V14C11.5 13.7348 11.3946 13.4804 11.2071 13.2929C11.0196 13.1054 10.7652 13 10.5 13H8.5V11H10.5C10.7652 11 11.0196 10.8946 11.2071 10.7071C11.3946 10.5196 11.5 10.2652 11.5 10V8H13.5V10C13.5 10.2652 13.6054 10.5196 13.7929 10.7071C13.9804 10.8946 14.2348 11 14.5 11H16.5V13Z" fill="#1684D4"/>
</g>
</svg>
