<svg width="780" height="615" viewBox="0 0 780 615" fill="none" xmlns="http://www.w3.org/2000/svg">
<path fill-rule="evenodd" clip-rule="evenodd" d="M769.741 198.746C746.612 269.319 660.95 293.478 616.854 353.237C556.028 435.669 564.719 588.261 464.996 611.741C368.963 634.352 307.205 505.444 229.706 444.392C167.096 395.07 94.0833 358.977 55.5638 289.203C15.0864 215.882 -17.3233 127.013 10.9801 48.1928C38.4659 -28.3507 134.284 -48.5855 195.916 -101.655C254.308 -151.936 288.926 -229.881 362.072 -254.127C443.404 -281.086 538.863 -283.654 612.424 -239.715C685.326 -196.169 712.931 -107.346 741.607 -27.423C767.907 45.8792 793.994 124.743 769.741 198.746Z" fill="url(#paint0_linear_1_137)" style="mix-blend-mode:multiply"/>
<defs>
<linearGradient id="paint0_linear_1_137" x1="622.036" y1="589.272" x2="14.9899" y2="-24.3514" gradientUnits="userSpaceOnUse">
<stop stop-color="#CFFAF1"/>
<stop offset="1" stop-color="#C0DEFE" stop-opacity="0"/>
</linearGradient>
</defs>
</svg>
