<svg width="44" height="40" viewBox="0 0 44 40" fill="none" xmlns="http://www.w3.org/2000/svg">
<path id="Vector" d="M41.5637 5.14594C41.0015 4.55242 40.3216 4.07903 39.5663 3.75512C38.8109 3.4312 37.9961 3.26364 37.1724 3.26282C36.3487 3.26364 35.5339 3.4312 34.7785 3.75511C34.0231 4.07903 33.3432 4.55241 32.7809 5.14594L30.7047 7.29991L28.628 5.14594C28.0817 4.56935 27.4242 4.10595 26.6941 3.78285C25.964 3.45975 25.1759 3.28342 24.3758 3.26419V2.87282C24.375 2.14903 24.083 1.45513 23.5639 0.943333C23.0448 0.431537 22.341 0.143648 21.6069 0.142822H6.57617C5.84207 0.143648 5.13828 0.431537 4.61919 0.943333C4.1001 1.45513 3.80811 2.14903 3.80727 2.87282V24.5546C3.80658 25.3324 4.05445 26.0906 4.5157 26.7216C4.97695 27.3526 5.62811 27.8242 6.37671 28.0696L10.7144 29.4951C12.9072 30.2108 15.2756 30.2108 17.4685 29.4951L21.8063 28.0696C22.555 27.8243 23.2062 27.3527 23.6676 26.7217C24.1289 26.0907 24.3769 25.3324 24.3762 24.5546V18.8425L29.914 24.5872V37.3878C29.914 37.4395 29.8931 37.4891 29.8561 37.5257C29.819 37.5623 29.7687 37.5828 29.7162 37.5828H21.4095C21.3571 37.5828 21.3068 37.5623 21.2697 37.5257C21.2326 37.4891 21.2117 37.4395 21.2117 37.3878V36.0228H22.0029C22.2127 36.0228 22.4139 35.9406 22.5623 35.7944C22.7106 35.6481 22.794 35.4497 22.794 35.2428V31.0337L22.8076 31.0294C24.1866 30.5775 25.3861 29.7087 26.2358 28.5464C27.0854 27.384 27.542 25.9873 27.5406 24.5546V23.5428H25.9584V24.5546C25.9594 25.6598 25.6072 26.7373 24.9518 27.6339C24.2963 28.5305 23.371 29.2007 22.3072 29.5493L21.7527 29.7316C21.5952 29.7834 21.4582 29.8827 21.3611 30.0155C21.264 30.1483 21.2118 30.3079 21.2117 30.4716V34.4628H19.6295V31.5116C19.6295 31.388 19.5997 31.2662 19.5426 31.1562C19.4855 31.0462 19.4027 30.9511 19.301 30.8788C19.1993 30.8066 19.0816 30.7592 18.9577 30.7406C18.8338 30.7219 18.7071 30.7326 18.5882 30.7717L17.9694 30.975C17.1923 31.2304 16.3912 31.4084 15.5781 31.5065C15.3863 31.5296 15.2097 31.6211 15.0817 31.7637C14.9536 31.9063 14.8829 32.0903 14.8828 32.2808V37.5828H13.3006V32.2808C13.3006 32.0903 13.2299 31.9063 13.1018 31.7637C12.9737 31.6211 12.7971 31.5296 12.6053 31.5065C11.7922 31.4084 10.9911 31.2304 10.214 30.975L9.59525 30.7716C9.47633 30.7325 9.3497 30.7218 9.22578 30.7405C9.10186 30.7591 8.98421 30.8065 8.88251 30.8787C8.78082 30.951 8.698 31.0461 8.64087 31.1561C8.58375 31.2661 8.55396 31.3879 8.55395 31.5115V34.4628H6.97172V30.4716C6.97171 30.3078 6.91945 30.1483 6.82235 30.0155C6.72525 29.8827 6.58823 29.7834 6.4307 29.7316L5.87692 29.5495C4.81302 29.201 3.88755 28.5308 3.23198 27.6341C2.57642 26.7375 2.22409 25.6599 2.22505 24.5546V10.2828H0.642825V24.5546C0.641518 25.9874 1.09815 27.3841 1.94785 28.5465C2.79755 29.7088 3.99711 30.5776 5.37615 31.0295L5.3895 31.0338V35.2428C5.3895 35.4497 5.47285 35.6481 5.62121 35.7944C5.76957 35.9406 5.9708 36.0228 6.18061 36.0228H9.34506C9.55488 36.0228 9.7561 35.9406 9.90446 35.7944C10.0528 35.6481 10.1362 35.4497 10.1362 35.2428V32.5864C10.6559 32.7391 11.1842 32.8617 11.7184 32.9536V38.3628C11.7184 38.5697 11.8017 38.7681 11.9501 38.9144C12.0985 39.0606 12.2997 39.1428 12.5095 39.1428H15.674C15.8838 39.1428 16.085 39.0606 16.2334 38.9144C16.3817 38.7681 16.4651 38.5697 16.4651 38.3628V32.9536C16.9993 32.8617 17.5276 32.7391 18.0473 32.5864V35.2428C18.0473 35.4497 18.1306 35.6481 18.279 35.7944C18.4274 35.9406 18.6286 36.0228 18.8384 36.0228H19.6295V37.3878C19.6301 37.8531 19.8178 38.2992 20.1515 38.6282C20.4852 38.9572 20.9376 39.1423 21.4095 39.1428H29.7162C30.1881 39.1423 30.6406 38.9572 30.9742 38.6282C31.3079 38.2992 31.4957 37.8531 31.4962 37.3878V24.5861L38.3987 17.4259L37.2516 16.351L30.7045 23.1431L20.9921 13.0675C19.1726 11.1798 19.1726 8.10838 20.9921 6.22078C21.406 5.7799 21.9079 5.42813 22.4663 5.18757C23.0246 4.947 23.6274 4.82282 24.2367 4.82282C24.846 4.82282 25.4488 4.947 26.0072 5.18757C26.5655 5.42813 27.0674 5.7799 27.4813 6.22078L30.1315 8.9695C30.2054 9.0462 30.2944 9.10728 30.393 9.14901C30.4916 9.19075 30.5978 9.21227 30.7051 9.21227C30.8124 9.21227 30.9186 9.19075 31.0172 9.14901C31.1158 9.10728 31.2047 9.0462 31.2787 8.9695L33.9289 6.22078C34.3428 5.7799 34.8447 5.42813 35.403 5.18757C35.9614 4.947 36.5641 4.82282 37.1735 4.82282C37.7828 4.82282 38.3856 4.947 38.9439 5.18757C39.5023 5.42813 40.0042 5.7799 40.4181 6.22078C42.2376 8.10838 42.2376 11.1798 40.4181 13.0675L38.3572 15.2054L39.5043 16.2802L41.5653 14.1423C43.9546 11.662 43.9546 7.62624 41.5637 5.14594ZM21.3064 26.5895L16.9686 28.015C15.1005 28.625 13.0828 28.625 11.2148 28.015L6.87709 26.5895C6.44368 26.4475 6.06668 26.1745 5.79963 25.8092C5.53259 25.4439 5.38908 25.0049 5.3895 24.5546V22.7628H22.794V24.5546C22.7944 25.0049 22.6509 25.4439 22.3838 25.8092C22.1168 26.1745 21.7398 26.4475 21.3064 26.5895ZM19.8452 14.1423L22.794 17.2012V21.2028H5.3895V7.16282H18.5348C17.5924 9.47806 18.0295 12.2587 19.8452 14.1423ZM19.8452 5.14594C19.7035 5.2931 19.5702 5.44539 19.4453 5.60282H5.3895V2.87282C5.38984 2.56262 5.51497 2.26522 5.73744 2.04588C5.95991 1.82653 6.26155 1.70316 6.57617 1.70282H21.6073C21.9219 1.70316 22.2236 1.82653 22.446 2.04588C22.6685 2.26522 22.7936 2.56262 22.794 2.87282V3.43588C21.6654 3.71616 20.642 4.30963 19.8452 5.14594Z" fill="#2E4369"/>
</svg>
