<svg width="108" height="24" viewBox="0 0 108 24" fill="none" xmlns="http://www.w3.org/2000/svg">
<g clip-path="url(#clip0_1211_9407)">
<rect y="4" width="16" height="16" rx="2" fill="white"/>
<rect y="4" width="16" height="16" rx="2" fill="#1890FF"/>
<path d="M7.10497 16.6041L7.08735 16.6217L2.6875 12.2218L4.12018 10.7892L7.10502 13.774L11.879 9L13.3117 10.4327L7.12264 16.6218L7.10497 16.6041Z" fill="white"/>
<path d="M24.32 18L28.288 6.48H29.848L33.816 18H32.592L28.824 7.136H29.288L25.544 18H24.32ZM26.088 15.208V14.104H32.04V15.208H26.088ZM38.5646 18.216C38.0473 18.216 37.594 18.136 37.2046 17.976C36.8206 17.816 36.4926 17.6 36.2206 17.328C35.954 17.056 35.738 16.7467 35.5726 16.4C35.4073 16.048 35.2873 15.6773 35.2126 15.288C35.138 14.8933 35.1006 14.5013 35.1006 14.112V9.36H36.2846V13.768C36.2846 14.2427 36.33 14.6827 36.4206 15.088C36.5113 15.4933 36.6553 15.848 36.8526 16.152C37.0553 16.4507 37.314 16.6827 37.6286 16.848C37.9486 17.0133 38.3353 17.096 38.7886 17.096C39.2046 17.096 39.57 17.024 39.8846 16.88C40.2046 16.736 40.4713 16.5307 40.6846 16.264C40.9033 15.992 41.0686 15.664 41.1806 15.28C41.2926 14.8907 41.3486 14.4533 41.3486 13.968L42.1806 14.152C42.1806 15.0373 42.026 15.7813 41.7166 16.384C41.4073 16.9867 40.9806 17.4427 40.4366 17.752C39.8926 18.0613 39.2686 18.216 38.5646 18.216ZM41.4686 18V15.872H41.3486V9.36H42.5246V18H41.4686ZM49.4646 18C48.9793 18.1013 48.4993 18.1413 48.0246 18.12C47.5553 18.0987 47.134 17.9973 46.7606 17.816C46.3926 17.6347 46.1126 17.352 45.9206 16.968C45.766 16.648 45.6806 16.3253 45.6646 16C45.654 15.6693 45.6486 15.2933 45.6486 14.872V6.96H46.8166V14.824C46.8166 15.1867 46.8193 15.4907 46.8246 15.736C46.8353 15.976 46.8913 16.1893 46.9926 16.376C47.1846 16.7333 47.4886 16.9467 47.9046 17.016C48.326 17.0853 48.846 17.0693 49.4646 16.968V18ZM43.8006 10.368V9.36H49.4646V10.368H43.8006ZM54.4624 18.24C53.6037 18.24 52.8704 18.0453 52.2624 17.656C51.6544 17.2667 51.1877 16.728 50.8624 16.04C50.537 15.352 50.3744 14.5627 50.3744 13.672C50.3744 12.7653 50.5397 11.9707 50.8704 11.288C51.201 10.6053 51.6704 10.0747 52.2784 9.696C52.8917 9.312 53.6197 9.12 54.4624 9.12C55.3264 9.12 56.0624 9.31467 56.6704 9.704C57.2837 10.088 57.7504 10.624 58.0704 11.312C58.3957 11.9947 58.5584 12.7813 58.5584 13.672C58.5584 14.5787 58.3957 15.376 58.0704 16.064C57.745 16.7467 57.2757 17.28 56.6624 17.664C56.049 18.048 55.3157 18.24 54.4624 18.24ZM54.4624 17.112C55.4224 17.112 56.137 16.7947 56.6064 16.16C57.0757 15.52 57.3104 14.6907 57.3104 13.672C57.3104 12.6267 57.073 11.7947 56.5984 11.176C56.129 10.5573 55.417 10.248 54.4624 10.248C53.817 10.248 53.2837 10.3947 52.8624 10.688C52.4464 10.976 52.1344 11.3787 51.9264 11.896C51.7237 12.408 51.6224 13 51.6224 13.672C51.6224 14.712 51.8624 15.5467 52.3424 16.176C52.8224 16.8 53.529 17.112 54.4624 17.112ZM63.5263 18V9.36H64.5823V11.44L64.3743 11.168C64.4703 10.912 64.5956 10.6773 64.7503 10.464C64.9049 10.2453 65.0729 10.0667 65.2543 9.928C65.4783 9.73067 65.7396 9.58133 66.0383 9.48C66.3369 9.37333 66.6383 9.312 66.9423 9.296C67.2463 9.27467 67.5236 9.296 67.7743 9.36V10.464C67.4596 10.384 67.1156 10.3653 66.7423 10.408C66.3689 10.4507 66.0249 10.6 65.7103 10.856C65.4223 11.08 65.2063 11.3493 65.0623 11.664C64.9183 11.9733 64.8223 12.304 64.7743 12.656C64.7263 13.0027 64.7023 13.3467 64.7023 13.688V18H63.5263ZM72.7916 18.24C71.949 18.24 71.2183 18.0533 70.5996 17.68C69.9863 17.3067 69.509 16.7813 69.1676 16.104C68.8263 15.4267 68.6556 14.632 68.6556 13.72C68.6556 12.776 68.8236 11.96 69.1596 11.272C69.4956 10.584 69.9676 10.0533 70.5756 9.68C71.189 9.30667 71.9116 9.12 72.7436 9.12C73.597 9.12 74.325 9.31733 74.9276 9.712C75.5303 10.1013 75.9863 10.6613 76.2956 11.392C76.605 12.1227 76.7463 12.9947 76.7196 14.008H75.5196V13.592C75.4983 12.472 75.2556 11.6267 74.7916 11.056C74.333 10.4853 73.661 10.2 72.7756 10.2C71.8476 10.2 71.1356 10.5013 70.6396 11.104C70.149 11.7067 69.9036 12.5653 69.9036 13.68C69.9036 14.768 70.149 15.6133 70.6396 16.216C71.1356 16.8133 71.837 17.112 72.7436 17.112C73.3623 17.112 73.901 16.9707 74.3596 16.688C74.8236 16.4 75.189 15.9867 75.4556 15.448L76.5516 15.872C76.2103 16.624 75.7063 17.208 75.0396 17.624C74.3783 18.0347 73.629 18.24 72.7916 18.24ZM69.4876 14.008V13.024H76.0876V14.008H69.4876ZM84.5006 18V13.592C84.5006 13.112 84.4553 12.672 84.3646 12.272C84.274 11.8667 84.1273 11.5147 83.9246 11.216C83.7273 10.912 83.4686 10.6773 83.1486 10.512C82.834 10.3467 82.45 10.264 81.9966 10.264C81.5806 10.264 81.2126 10.336 80.8926 10.48C80.578 10.624 80.3113 10.832 80.0926 11.104C79.8793 11.3707 79.7166 11.696 79.6046 12.08C79.4926 12.464 79.4366 12.9013 79.4366 13.392L78.6046 13.208C78.6046 12.3227 78.7593 11.5787 79.0686 10.976C79.378 10.3733 79.8046 9.91733 80.3486 9.608C80.8926 9.29867 81.5166 9.144 82.2206 9.144C82.738 9.144 83.1886 9.224 83.5726 9.384C83.962 9.544 84.29 9.76 84.5566 10.032C84.8286 10.304 85.0473 10.616 85.2126 10.968C85.378 11.3147 85.498 11.6853 85.5726 12.08C85.6473 12.4693 85.6846 12.8587 85.6846 13.248V18H84.5006ZM78.2526 18V9.36H79.3166V11.488H79.4366V18H78.2526ZM91.3698 18.24C90.5271 18.24 89.7964 18.0533 89.1778 17.68C88.5644 17.3067 88.0871 16.7813 87.7458 16.104C87.4044 15.4267 87.2338 14.632 87.2338 13.72C87.2338 12.776 87.4018 11.96 87.7378 11.272C88.0738 10.584 88.5458 10.0533 89.1538 9.68C89.7671 9.30667 90.4898 9.12 91.3218 9.12C92.1751 9.12 92.9031 9.31733 93.5058 9.712C94.1084 10.1013 94.5644 10.6613 94.8738 11.392C95.1831 12.1227 95.3244 12.9947 95.2978 14.008H94.0978V13.592C94.0764 12.472 93.8338 11.6267 93.3698 11.056C92.9111 10.4853 92.2391 10.2 91.3538 10.2C90.4258 10.2 89.7138 10.5013 89.2178 11.104C88.7271 11.7067 88.4818 12.5653 88.4818 13.68C88.4818 14.768 88.7271 15.6133 89.2178 16.216C89.7138 16.8133 90.4151 17.112 91.3218 17.112C91.9404 17.112 92.4791 16.9707 92.9378 16.688C93.4018 16.4 93.7671 15.9867 94.0338 15.448L95.1298 15.872C94.7884 16.624 94.2844 17.208 93.6178 17.624C92.9564 18.0347 92.2071 18.24 91.3698 18.24ZM88.0658 14.008V13.024H94.6658V14.008H88.0658ZM98.6006 18L95.9606 9.352L97.1366 9.36L99.1846 16.072L101.241 9.36H102.313L104.369 16.072L106.433 9.36H107.601L104.961 18H103.937L101.777 11.12L99.6246 18H98.6006Z" fill="black" fill-opacity="0.85"/>
</g>
<defs>
<clipPath id="clip0_1211_9407">
<rect width="108" height="24" fill="white"/>
</clipPath>
</defs>
</svg>
