<svg width="349" height="24" viewBox="0 0 349 24" fill="none" xmlns="http://www.w3.org/2000/svg">
<g clip-path="url(#clip0_1211_10061)">
<rect y="4" width="16" height="16" rx="2" fill="white"/>
<rect y="4" width="16" height="16" rx="2" fill="#1890FF"/>
<path d="M7.10497 16.6041L7.08735 16.6217L2.6875 12.2218L4.12018 10.7892L7.10502 13.774L11.879 9L13.3117 10.4327L7.12264 16.6218L7.10497 16.6041Z" fill="white"/>
<path d="M29.12 18.24C28.3147 18.24 27.5893 18.1067 26.944 17.84C26.304 17.568 25.7733 17.184 25.352 16.688C24.936 16.192 24.664 15.6027 24.536 14.92L25.736 14.72C25.928 15.4667 26.3333 16.0533 26.952 16.48C27.5707 16.9013 28.3093 17.112 29.168 17.112C29.7333 17.112 30.24 17.024 30.688 16.848C31.136 16.6667 31.488 16.4107 31.744 16.08C32 15.7493 32.128 15.3573 32.128 14.904C32.128 14.6053 32.0747 14.352 31.968 14.144C31.8613 13.9307 31.72 13.7547 31.544 13.616C31.368 13.4773 31.176 13.3627 30.968 13.272C30.76 13.176 30.5573 13.0987 30.36 13.04L27.44 12.168C27.088 12.0667 26.7627 11.9387 26.464 11.784C26.1653 11.624 25.904 11.4347 25.68 11.216C25.4613 10.992 25.2907 10.7307 25.168 10.432C25.0453 10.1333 24.984 9.792 24.984 9.408C24.984 8.75733 25.1547 8.19467 25.496 7.72C25.8373 7.24533 26.304 6.88 26.896 6.624C27.488 6.368 28.1627 6.24267 28.92 6.248C29.688 6.248 30.3733 6.384 30.976 6.656C31.584 6.928 32.0853 7.31733 32.48 7.824C32.8747 8.32533 33.136 8.92 33.264 9.608L32.032 9.832C31.952 9.33067 31.768 8.896 31.48 8.528C31.192 8.16 30.824 7.87733 30.376 7.68C29.9333 7.47733 29.4453 7.37333 28.912 7.368C28.3947 7.368 27.9333 7.456 27.528 7.632C27.128 7.80267 26.8107 8.03733 26.576 8.336C26.3413 8.63467 26.224 8.976 26.224 9.36C26.224 9.74933 26.3307 10.0613 26.544 10.296C26.7627 10.5307 27.0293 10.7147 27.344 10.848C27.664 10.9813 27.9733 11.0907 28.272 11.176L30.528 11.84C30.7627 11.904 31.0373 11.9973 31.352 12.12C31.672 12.2373 31.9813 12.408 32.28 12.632C32.584 12.8507 32.8347 13.1387 33.032 13.496C33.2293 13.8533 33.328 14.3067 33.328 14.856C33.328 15.3893 33.2213 15.8667 33.008 16.288C32.8 16.7093 32.504 17.064 32.12 17.352C31.7413 17.64 31.296 17.8587 30.784 18.008C30.2773 18.1627 29.7227 18.24 29.12 18.24ZM41.2194 18V13.592C41.2194 13.112 41.174 12.672 41.0834 12.272C40.9927 11.8667 40.846 11.5147 40.6434 11.216C40.446 10.912 40.1874 10.6773 39.8674 10.512C39.5527 10.3467 39.1687 10.264 38.7154 10.264C38.2994 10.264 37.9314 10.336 37.6114 10.48C37.2967 10.624 37.03 10.832 36.8114 11.104C36.598 11.3707 36.4354 11.696 36.3234 12.08C36.2114 12.464 36.1554 12.9013 36.1554 13.392L35.3234 13.208C35.3234 12.3227 35.478 11.5787 35.7874 10.976C36.0967 10.3733 36.5234 9.91733 37.0674 9.608C37.6114 9.29867 38.2354 9.144 38.9394 9.144C39.4567 9.144 39.9074 9.224 40.2914 9.384C40.6807 9.544 41.0087 9.76 41.2754 10.032C41.5474 10.304 41.766 10.616 41.9314 10.968C42.0967 11.3147 42.2167 11.6853 42.2914 12.08C42.366 12.4693 42.4034 12.8587 42.4034 13.248V18H41.2194ZM34.9714 18V6.48H36.0354V12.984H36.1554V18H34.9714ZM48.0874 18.24C47.2287 18.24 46.4954 18.0453 45.8874 17.656C45.2794 17.2667 44.8127 16.728 44.4874 16.04C44.162 15.352 43.9994 14.5627 43.9994 13.672C43.9994 12.7653 44.1647 11.9707 44.4954 11.288C44.826 10.6053 45.2954 10.0747 45.9034 9.696C46.5167 9.312 47.2447 9.12 48.0874 9.12C48.9514 9.12 49.6874 9.31467 50.2954 9.704C50.9087 10.088 51.3754 10.624 51.6954 11.312C52.0207 11.9947 52.1834 12.7813 52.1834 13.672C52.1834 14.5787 52.0207 15.376 51.6954 16.064C51.37 16.7467 50.9007 17.28 50.2874 17.664C49.674 18.048 48.9407 18.24 48.0874 18.24ZM48.0874 17.112C49.0474 17.112 49.762 16.7947 50.2314 16.16C50.7007 15.52 50.9354 14.6907 50.9354 13.672C50.9354 12.6267 50.698 11.7947 50.2234 11.176C49.754 10.5573 49.042 10.248 48.0874 10.248C47.442 10.248 46.9087 10.3947 46.4874 10.688C46.0714 10.976 45.7594 11.3787 45.5514 11.896C45.3487 12.408 45.2474 13 45.2474 13.672C45.2474 14.712 45.4874 15.5467 45.9674 16.176C46.4474 16.8 47.154 17.112 48.0874 17.112ZM55.4756 18L52.8356 9.352L54.0116 9.36L56.0596 16.072L58.1156 9.36H59.1876L61.2436 16.072L63.3076 9.36H64.4756L61.8356 18H60.8116L58.6516 11.12L56.4996 18H55.4756ZM79.424 18L79.432 12.328C79.432 11.6613 79.2453 11.1387 78.872 10.76C78.504 10.376 78.0347 10.184 77.464 10.184C77.1387 10.184 76.8213 10.2587 76.512 10.408C76.2027 10.5573 75.9467 10.7973 75.744 11.128C75.5467 11.4587 75.448 11.8907 75.448 12.424L74.752 12.224C74.736 11.6053 74.856 11.064 75.112 10.6C75.3733 10.136 75.7307 9.776 76.184 9.52C76.6427 9.25867 77.16 9.128 77.736 9.128C78.6053 9.128 79.3013 9.39733 79.824 9.936C80.3467 10.4693 80.608 11.192 80.608 12.104L80.6 18H79.424ZM69.112 18V9.36H70.168V11.488H70.296V18H69.112ZM74.28 18L74.288 12.408C74.288 11.72 74.104 11.1787 73.736 10.784C73.3733 10.384 72.8933 10.184 72.296 10.184C71.6987 10.184 71.216 10.3893 70.848 10.8C70.48 11.2053 70.296 11.7467 70.296 12.424L69.592 12.04C69.592 11.4853 69.7227 10.9893 69.984 10.552C70.2453 10.1093 70.6027 9.76267 71.056 9.512C71.5093 9.256 72.024 9.128 72.6 9.128C73.1493 9.128 73.6373 9.24533 74.064 9.48C74.496 9.71467 74.8347 10.056 75.08 10.504C75.3253 10.952 75.448 11.496 75.448 12.136L75.44 18H74.28ZM83.602 21.84L85.274 17.304L85.298 18.648L81.514 9.36H82.762L85.866 17.128H85.354L88.218 9.36H89.418L84.778 21.84H83.602ZM97.8906 18.24C97.096 18.24 96.424 18.04 95.8746 17.64C95.3253 17.2347 94.9093 16.688 94.6266 16C94.344 15.3067 94.2026 14.5307 94.2026 13.672C94.2026 12.7973 94.344 12.0187 94.6266 11.336C94.9146 10.648 95.336 10.1067 95.8906 9.712C96.4453 9.31733 97.128 9.12 97.9386 9.12C98.728 9.12 99.4053 9.32 99.9706 9.72C100.536 10.12 100.968 10.664 101.267 11.352C101.571 12.04 101.723 12.8133 101.723 13.672C101.723 14.536 101.571 15.312 101.267 16C100.963 16.688 100.525 17.2347 99.9546 17.64C99.384 18.04 98.696 18.24 97.8906 18.24ZM94.0026 21.84V9.36H95.0586V15.864H95.1866V21.84H94.0026ZM97.7706 17.144C98.3733 17.144 98.8746 16.992 99.2746 16.688C99.6746 16.384 99.9733 15.9707 100.171 15.448C100.373 14.92 100.475 14.328 100.475 13.672C100.475 13.0213 100.376 12.4347 100.179 11.912C99.9813 11.3893 99.68 10.976 99.2746 10.672C98.8746 10.368 98.3653 10.216 97.7466 10.216C97.144 10.216 96.6426 10.3627 96.2426 10.656C95.848 10.9493 95.552 11.3573 95.3546 11.88C95.1573 12.3973 95.0586 12.9947 95.0586 13.672C95.0586 14.3387 95.1573 14.936 95.3546 15.464C95.552 15.9867 95.8506 16.3973 96.2506 16.696C96.6506 16.9947 97.1573 17.144 97.7706 17.144ZM109.719 18V13.592C109.719 13.112 109.674 12.672 109.583 12.272C109.493 11.8667 109.346 11.5147 109.143 11.216C108.946 10.912 108.687 10.6773 108.367 10.512C108.053 10.3467 107.669 10.264 107.215 10.264C106.799 10.264 106.431 10.336 106.111 10.48C105.797 10.624 105.53 10.832 105.311 11.104C105.098 11.3707 104.935 11.696 104.823 12.08C104.711 12.464 104.655 12.9013 104.655 13.392L103.823 13.208C103.823 12.3227 103.978 11.5787 104.287 10.976C104.597 10.3733 105.023 9.91733 105.567 9.608C106.111 9.29867 106.735 9.144 107.439 9.144C107.957 9.144 108.407 9.224 108.791 9.384C109.181 9.544 109.509 9.76 109.775 10.032C110.047 10.304 110.266 10.616 110.431 10.968C110.597 11.3147 110.717 11.6853 110.791 12.08C110.866 12.4693 110.903 12.8587 110.903 13.248V18H109.719ZM103.471 18V6.48H104.535V12.984H104.655V18H103.471ZM116.587 18.24C115.729 18.24 114.995 18.0453 114.387 17.656C113.779 17.2667 113.313 16.728 112.987 16.04C112.662 15.352 112.499 14.5627 112.499 13.672C112.499 12.7653 112.665 11.9707 112.995 11.288C113.326 10.6053 113.795 10.0747 114.403 9.696C115.017 9.312 115.745 9.12 116.587 9.12C117.451 9.12 118.187 9.31467 118.795 9.704C119.409 10.088 119.875 10.624 120.195 11.312C120.521 11.9947 120.683 12.7813 120.683 13.672C120.683 14.5787 120.521 15.376 120.195 16.064C119.87 16.7467 119.401 17.28 118.787 17.664C118.174 18.048 117.441 18.24 116.587 18.24ZM116.587 17.112C117.547 17.112 118.262 16.7947 118.731 16.16C119.201 15.52 119.435 14.6907 119.435 13.672C119.435 12.6267 119.198 11.7947 118.723 11.176C118.254 10.5573 117.542 10.248 116.587 10.248C115.942 10.248 115.409 10.3947 114.987 10.688C114.571 10.976 114.259 11.3787 114.051 11.896C113.849 12.408 113.747 13 113.747 13.672C113.747 14.712 113.987 15.5467 114.467 16.176C114.947 16.8 115.654 17.112 116.587 17.112ZM128.688 18V13.592C128.688 13.112 128.643 12.672 128.552 12.272C128.461 11.8667 128.315 11.5147 128.112 11.216C127.915 10.912 127.656 10.6773 127.336 10.512C127.021 10.3467 126.637 10.264 126.184 10.264C125.768 10.264 125.4 10.336 125.08 10.48C124.765 10.624 124.499 10.832 124.28 11.104C124.067 11.3707 123.904 11.696 123.792 12.08C123.68 12.464 123.624 12.9013 123.624 13.392L122.792 13.208C122.792 12.3227 122.947 11.5787 123.256 10.976C123.565 10.3733 123.992 9.91733 124.536 9.608C125.08 9.29867 125.704 9.144 126.408 9.144C126.925 9.144 127.376 9.224 127.76 9.384C128.149 9.544 128.477 9.76 128.744 10.032C129.016 10.304 129.235 10.616 129.4 10.968C129.565 11.3147 129.685 11.6853 129.76 12.08C129.835 12.4693 129.872 12.8587 129.872 13.248V18H128.688ZM122.44 18V9.36H123.504V11.488H123.624V18H122.44ZM135.557 18.24C134.715 18.24 133.984 18.0533 133.365 17.68C132.752 17.3067 132.275 16.7813 131.933 16.104C131.592 15.4267 131.421 14.632 131.421 13.72C131.421 12.776 131.589 11.96 131.925 11.272C132.261 10.584 132.733 10.0533 133.341 9.68C133.955 9.30667 134.677 9.12 135.509 9.12C136.363 9.12 137.091 9.31733 137.693 9.712C138.296 10.1013 138.752 10.6613 139.061 11.392C139.371 12.1227 139.512 12.9947 139.485 14.008H138.285V13.592C138.264 12.472 138.021 11.6267 137.557 11.056C137.099 10.4853 136.427 10.2 135.541 10.2C134.613 10.2 133.901 10.5013 133.405 11.104C132.915 11.7067 132.669 12.5653 132.669 13.68C132.669 14.768 132.915 15.6133 133.405 16.216C133.901 16.8133 134.603 17.112 135.509 17.112C136.128 17.112 136.667 16.9707 137.125 16.688C137.589 16.4 137.955 15.9867 138.221 15.448L139.317 15.872C138.976 16.624 138.472 17.208 137.805 17.624C137.144 18.0347 136.395 18.24 135.557 18.24ZM132.253 14.008V13.024H138.853V14.008H132.253ZM150.704 18V13.592C150.704 13.112 150.658 12.672 150.568 12.272C150.477 11.8667 150.33 11.5147 150.128 11.216C149.93 10.912 149.672 10.6773 149.352 10.512C149.037 10.3467 148.653 10.264 148.2 10.264C147.784 10.264 147.416 10.336 147.096 10.48C146.781 10.624 146.514 10.832 146.296 11.104C146.082 11.3707 145.92 11.696 145.808 12.08C145.696 12.464 145.64 12.9013 145.64 13.392L144.808 13.208C144.808 12.3227 144.962 11.5787 145.272 10.976C145.581 10.3733 146.008 9.91733 146.552 9.608C147.096 9.29867 147.72 9.144 148.424 9.144C148.941 9.144 149.392 9.224 149.776 9.384C150.165 9.544 150.493 9.76 150.76 10.032C151.032 10.304 151.25 10.616 151.416 10.968C151.581 11.3147 151.701 11.6853 151.776 12.08C151.85 12.4693 151.888 12.8587 151.888 13.248V18H150.704ZM144.456 18V9.36H145.52V11.488H145.64V18H144.456ZM157.268 18.216C156.75 18.216 156.297 18.136 155.908 17.976C155.524 17.816 155.196 17.6 154.924 17.328C154.657 17.056 154.441 16.7467 154.276 16.4C154.11 16.048 153.99 15.6773 153.916 15.288C153.841 14.8933 153.804 14.5013 153.804 14.112V9.36H154.988V13.768C154.988 14.2427 155.033 14.6827 155.124 15.088C155.214 15.4933 155.358 15.848 155.556 16.152C155.758 16.4507 156.017 16.6827 156.332 16.848C156.652 17.0133 157.038 17.096 157.492 17.096C157.908 17.096 158.273 17.024 158.588 16.88C158.908 16.736 159.174 16.5307 159.388 16.264C159.606 15.992 159.772 15.664 159.884 15.28C159.996 14.8907 160.052 14.4533 160.052 13.968L160.884 14.152C160.884 15.0373 160.729 15.7813 160.42 16.384C160.11 16.9867 159.684 17.4427 159.14 17.752C158.596 18.0613 157.972 18.216 157.268 18.216ZM160.172 18V15.872H160.052V9.36H161.228V18H160.172ZM173.768 18L173.776 12.328C173.776 11.6613 173.589 11.1387 173.216 10.76C172.848 10.376 172.378 10.184 171.808 10.184C171.482 10.184 171.165 10.2587 170.856 10.408C170.546 10.5573 170.29 10.7973 170.088 11.128C169.89 11.4587 169.792 11.8907 169.792 12.424L169.096 12.224C169.08 11.6053 169.2 11.064 169.456 10.6C169.717 10.136 170.074 9.776 170.528 9.52C170.986 9.25867 171.504 9.128 172.08 9.128C172.949 9.128 173.645 9.39733 174.168 9.936C174.69 10.4693 174.952 11.192 174.952 12.104L174.944 18H173.768ZM163.456 18V9.36H164.512V11.488H164.64V18H163.456ZM168.624 18L168.632 12.408C168.632 11.72 168.448 11.1787 168.08 10.784C167.717 10.384 167.237 10.184 166.64 10.184C166.042 10.184 165.56 10.3893 165.192 10.8C164.824 11.2053 164.64 11.7467 164.64 12.424L163.936 12.04C163.936 11.4853 164.066 10.9893 164.328 10.552C164.589 10.1093 164.946 9.76267 165.4 9.512C165.853 9.256 166.368 9.128 166.944 9.128C167.493 9.128 167.981 9.24533 168.408 9.48C168.84 9.71467 169.178 10.056 169.424 10.504C169.669 10.952 169.792 11.496 169.792 12.136L169.784 18H168.624ZM180.906 18.24C180.112 18.24 179.44 18.04 178.89 17.64C178.341 17.2347 177.925 16.688 177.642 16C177.36 15.3067 177.218 14.5307 177.218 13.672C177.218 12.7973 177.36 12.0187 177.642 11.336C177.93 10.648 178.352 10.1067 178.906 9.712C179.461 9.31733 180.144 9.12 180.954 9.12C181.744 9.12 182.421 9.32 182.986 9.72C183.552 10.12 183.984 10.664 184.282 11.352C184.586 12.04 184.738 12.8133 184.738 13.672C184.738 14.536 184.586 15.312 184.282 16C183.978 16.688 183.541 17.2347 182.97 17.64C182.4 18.04 181.712 18.24 180.906 18.24ZM177.018 18V6.48H178.202V11.496H178.074V18H177.018ZM180.786 17.144C181.389 17.144 181.89 16.992 182.29 16.688C182.69 16.384 182.989 15.9707 183.186 15.448C183.389 14.92 183.49 14.328 183.49 13.672C183.49 13.0213 183.392 12.4347 183.194 11.912C182.997 11.3893 182.696 10.976 182.29 10.672C181.89 10.368 181.381 10.216 180.762 10.216C180.16 10.216 179.658 10.3627 179.258 10.656C178.864 10.9493 178.568 11.3573 178.37 11.88C178.173 12.3973 178.074 12.9947 178.074 13.672C178.074 14.3387 178.173 14.936 178.37 15.464C178.568 15.9867 178.866 16.3973 179.266 16.696C179.666 16.9947 180.173 17.144 180.786 17.144ZM190.151 18.24C189.308 18.24 188.578 18.0533 187.959 17.68C187.346 17.3067 186.868 16.7813 186.527 16.104C186.186 15.4267 186.015 14.632 186.015 13.72C186.015 12.776 186.183 11.96 186.519 11.272C186.855 10.584 187.327 10.0533 187.935 9.68C188.548 9.30667 189.271 9.12 190.103 9.12C190.956 9.12 191.684 9.31733 192.287 9.712C192.89 10.1013 193.346 10.6613 193.655 11.392C193.964 12.1227 194.106 12.9947 194.079 14.008H192.879V13.592C192.858 12.472 192.615 11.6267 192.151 11.056C191.692 10.4853 191.02 10.2 190.135 10.2C189.207 10.2 188.495 10.5013 187.999 11.104C187.508 11.7067 187.263 12.5653 187.263 13.68C187.263 14.768 187.508 15.6133 187.999 16.216C188.495 16.8133 189.196 17.112 190.103 17.112C190.722 17.112 191.26 16.9707 191.719 16.688C192.183 16.4 192.548 15.9867 192.815 15.448L193.911 15.872C193.57 16.624 193.066 17.208 192.399 17.624C191.738 18.0347 190.988 18.24 190.151 18.24ZM186.847 14.008V13.024H193.447V14.008H186.847ZM195.854 18V9.36H196.91V11.44L196.702 11.168C196.798 10.912 196.924 10.6773 197.078 10.464C197.233 10.2453 197.401 10.0667 197.582 9.928C197.806 9.73067 198.068 9.58133 198.366 9.48C198.665 9.37333 198.966 9.312 199.27 9.296C199.574 9.27467 199.852 9.296 200.102 9.36V10.464C199.788 10.384 199.444 10.3653 199.07 10.408C198.697 10.4507 198.353 10.6 198.038 10.856C197.75 11.08 197.534 11.3493 197.39 11.664C197.246 11.9733 197.15 12.304 197.102 12.656C197.054 13.0027 197.03 13.3467 197.03 13.688V18H195.854ZM207.295 18.24C206.644 18.24 206.098 18.1227 205.655 17.888C205.218 17.6533 204.89 17.3413 204.671 16.952C204.452 16.5627 204.343 16.1387 204.343 15.68C204.343 15.2107 204.436 14.8107 204.623 14.48C204.815 14.144 205.074 13.8693 205.399 13.656C205.73 13.4427 206.111 13.28 206.543 13.168C206.98 13.0613 207.463 12.968 207.991 12.888C208.524 12.8027 209.044 12.7307 209.551 12.672C210.063 12.608 210.511 12.5467 210.895 12.488L210.479 12.744C210.495 11.8907 210.33 11.2587 209.983 10.848C209.636 10.4373 209.034 10.232 208.175 10.232C207.583 10.232 207.082 10.3653 206.671 10.632C206.266 10.8987 205.98 11.32 205.815 11.896L204.671 11.56C204.868 10.7867 205.266 10.1867 205.863 9.76C206.46 9.33333 207.236 9.12 208.191 9.12C208.98 9.12 209.65 9.26933 210.199 9.568C210.754 9.86133 211.146 10.288 211.375 10.848C211.482 11.0987 211.551 11.3787 211.583 11.688C211.615 11.9973 211.631 12.312 211.631 12.632V18H210.583V15.832L210.887 15.96C210.594 16.7013 210.138 17.2667 209.519 17.656C208.9 18.0453 208.159 18.24 207.295 18.24ZM207.431 17.224C207.98 17.224 208.46 17.1253 208.871 16.928C209.282 16.7307 209.612 16.4613 209.863 16.12C210.114 15.7733 210.276 15.384 210.351 14.952C210.415 14.6747 210.45 14.3707 210.455 14.04C210.46 13.704 210.463 13.4533 210.463 13.288L210.911 13.52C210.511 13.5733 210.076 13.6267 209.607 13.68C209.143 13.7333 208.684 13.7947 208.231 13.864C207.783 13.9333 207.378 14.016 207.015 14.112C206.77 14.1813 206.532 14.28 206.303 14.408C206.074 14.5307 205.884 14.696 205.735 14.904C205.591 15.112 205.519 15.3707 205.519 15.68C205.519 15.9307 205.58 16.1733 205.703 16.408C205.831 16.6427 206.034 16.8373 206.311 16.992C206.594 17.1467 206.967 17.224 207.431 17.224ZM218.418 18C217.932 18.1013 217.452 18.1413 216.978 18.12C216.508 18.0987 216.087 17.9973 215.714 17.816C215.346 17.6347 215.066 17.352 214.874 16.968C214.719 16.648 214.634 16.3253 214.618 16C214.607 15.6693 214.602 15.2933 214.602 14.872V6.96H215.77V14.824C215.77 15.1867 215.772 15.4907 215.778 15.736C215.788 15.976 215.844 16.1893 215.946 16.376C216.138 16.7333 216.442 16.9467 216.858 17.016C217.279 17.0853 217.799 17.0693 218.418 16.968V18ZM212.754 10.368V9.36H218.418V10.368H212.754ZM226.547 18.232C225.534 18.232 224.699 18.0133 224.043 17.576C223.392 17.1387 222.992 16.5307 222.843 15.752L224.043 15.552C224.171 16.0427 224.462 16.4347 224.915 16.728C225.374 17.016 225.939 17.16 226.611 17.16C227.267 17.16 227.784 17.024 228.163 16.752C228.542 16.4747 228.731 16.0987 228.731 15.624C228.731 15.3573 228.67 15.1413 228.547 14.976C228.43 14.8053 228.187 14.648 227.819 14.504C227.451 14.36 226.902 14.1893 226.171 13.992C225.387 13.7787 224.774 13.5653 224.331 13.352C223.888 13.1387 223.574 12.8933 223.387 12.616C223.2 12.3333 223.107 11.9893 223.107 11.584C223.107 11.0933 223.246 10.664 223.523 10.296C223.8 9.92267 224.184 9.63467 224.675 9.432C225.166 9.224 225.736 9.12 226.387 9.12C227.038 9.12 227.619 9.22667 228.131 9.44C228.648 9.648 229.064 9.94133 229.379 10.32C229.694 10.6987 229.88 11.1387 229.939 11.64L228.739 11.856C228.659 11.3493 228.406 10.9493 227.979 10.656C227.558 10.3573 227.022 10.2027 226.371 10.192C225.758 10.176 225.259 10.2933 224.875 10.544C224.491 10.7893 224.299 11.1173 224.299 11.528C224.299 11.7573 224.368 11.9547 224.507 12.12C224.646 12.28 224.896 12.432 225.259 12.576C225.627 12.72 226.15 12.8773 226.827 13.048C227.622 13.2507 228.246 13.464 228.699 13.688C229.152 13.912 229.475 14.176 229.667 14.48C229.859 14.784 229.955 15.16 229.955 15.608C229.955 16.424 229.651 17.0667 229.043 17.536C228.44 18 227.608 18.232 226.547 18.232ZM235.313 18.24C234.444 18.24 233.708 18.0453 233.105 17.656C232.503 17.2667 232.044 16.7307 231.729 16.048C231.42 15.36 231.26 14.5707 231.249 13.68C231.26 12.7733 231.425 11.9787 231.745 11.296C232.065 10.608 232.527 10.0747 233.129 9.696C233.732 9.312 234.463 9.12 235.321 9.12C236.196 9.12 236.956 9.33333 237.601 9.76C238.252 10.1867 238.697 10.7707 238.937 11.512L237.785 11.88C237.583 11.3627 237.26 10.9627 236.817 10.68C236.38 10.392 235.879 10.248 235.313 10.248C234.679 10.248 234.153 10.3947 233.737 10.688C233.321 10.976 233.012 11.3787 232.809 11.896C232.607 12.4133 232.503 13.008 232.497 13.68C232.508 14.7147 232.748 15.5467 233.217 16.176C233.687 16.8 234.385 17.112 235.313 17.112C235.9 17.112 236.399 16.9787 236.809 16.712C237.225 16.44 237.54 16.0453 237.753 15.528L238.937 15.88C238.617 16.648 238.148 17.2347 237.529 17.64C236.911 18.04 236.172 18.24 235.313 18.24ZM243.014 18.24C242.363 18.24 241.817 18.1227 241.374 17.888C240.937 17.6533 240.609 17.3413 240.39 16.952C240.171 16.5627 240.062 16.1387 240.062 15.68C240.062 15.2107 240.155 14.8107 240.342 14.48C240.534 14.144 240.793 13.8693 241.118 13.656C241.449 13.4427 241.83 13.28 242.262 13.168C242.699 13.0613 243.182 12.968 243.71 12.888C244.243 12.8027 244.763 12.7307 245.27 12.672C245.782 12.608 246.23 12.5467 246.614 12.488L246.198 12.744C246.214 11.8907 246.049 11.2587 245.702 10.848C245.355 10.4373 244.753 10.232 243.894 10.232C243.302 10.232 242.801 10.3653 242.39 10.632C241.985 10.8987 241.699 11.32 241.534 11.896L240.39 11.56C240.587 10.7867 240.985 10.1867 241.582 9.76C242.179 9.33333 242.955 9.12 243.91 9.12C244.699 9.12 245.369 9.26933 245.918 9.568C246.473 9.86133 246.865 10.288 247.094 10.848C247.201 11.0987 247.27 11.3787 247.302 11.688C247.334 11.9973 247.35 12.312 247.35 12.632V18H246.302V15.832L246.606 15.96C246.313 16.7013 245.857 17.2667 245.238 17.656C244.619 18.0453 243.878 18.24 243.014 18.24ZM243.15 17.224C243.699 17.224 244.179 17.1253 244.59 16.928C245.001 16.7307 245.331 16.4613 245.582 16.12C245.833 15.7733 245.995 15.384 246.07 14.952C246.134 14.6747 246.169 14.3707 246.174 14.04C246.179 13.704 246.182 13.4533 246.182 13.288L246.63 13.52C246.23 13.5733 245.795 13.6267 245.326 13.68C244.862 13.7333 244.403 13.7947 243.95 13.864C243.502 13.9333 243.097 14.016 242.734 14.112C242.489 14.1813 242.251 14.28 242.022 14.408C241.793 14.5307 241.603 14.696 241.454 14.904C241.31 15.112 241.238 15.3707 241.238 15.68C241.238 15.9307 241.299 16.1733 241.422 16.408C241.55 16.6427 241.753 16.8373 242.03 16.992C242.313 17.1467 242.686 17.224 243.15 17.224ZM255.673 18V13.592C255.673 13.112 255.627 12.672 255.537 12.272C255.446 11.8667 255.299 11.5147 255.097 11.216C254.899 10.912 254.641 10.6773 254.321 10.512C254.006 10.3467 253.622 10.264 253.169 10.264C252.753 10.264 252.385 10.336 252.065 10.48C251.75 10.624 251.483 10.832 251.265 11.104C251.051 11.3707 250.889 11.696 250.777 12.08C250.665 12.464 250.609 12.9013 250.609 13.392L249.777 13.208C249.777 12.3227 249.931 11.5787 250.241 10.976C250.55 10.3733 250.977 9.91733 251.521 9.608C252.065 9.29867 252.689 9.144 253.393 9.144C253.91 9.144 254.361 9.224 254.745 9.384C255.134 9.544 255.462 9.76 255.729 10.032C256.001 10.304 256.219 10.616 256.385 10.968C256.55 11.3147 256.67 11.6853 256.745 12.08C256.819 12.4693 256.857 12.8587 256.857 13.248V18H255.673ZM249.425 18V9.36H250.489V11.488H250.609V18H249.425ZM266.84 18C266.354 18.1013 265.874 18.1413 265.4 18.12C264.93 18.0987 264.509 17.9973 264.136 17.816C263.768 17.6347 263.488 17.352 263.296 16.968C263.141 16.648 263.056 16.3253 263.04 16C263.029 15.6693 263.024 15.2933 263.024 14.872V6.96H264.192V14.824C264.192 15.1867 264.194 15.4907 264.2 15.736C264.21 15.976 264.266 16.1893 264.368 16.376C264.56 16.7333 264.864 16.9467 265.28 17.016C265.701 17.0853 266.221 17.0693 266.84 16.968V18ZM261.176 10.368V9.36H266.84V10.368H261.176ZM271.837 18.24C270.979 18.24 270.245 18.0453 269.637 17.656C269.029 17.2667 268.563 16.728 268.237 16.04C267.912 15.352 267.749 14.5627 267.749 13.672C267.749 12.7653 267.915 11.9707 268.245 11.288C268.576 10.6053 269.045 10.0747 269.653 9.696C270.267 9.312 270.995 9.12 271.837 9.12C272.701 9.12 273.437 9.31467 274.045 9.704C274.659 10.088 275.125 10.624 275.445 11.312C275.771 11.9947 275.933 12.7813 275.933 13.672C275.933 14.5787 275.771 15.376 275.445 16.064C275.12 16.7467 274.651 17.28 274.037 17.664C273.424 18.048 272.691 18.24 271.837 18.24ZM271.837 17.112C272.797 17.112 273.512 16.7947 273.981 16.16C274.451 15.52 274.685 14.6907 274.685 13.672C274.685 12.6267 274.448 11.7947 273.973 11.176C273.504 10.5573 272.792 10.248 271.837 10.248C271.192 10.248 270.659 10.3947 270.237 10.688C269.821 10.976 269.509 11.3787 269.301 11.896C269.099 12.408 268.997 13 268.997 13.672C268.997 14.712 269.237 15.5467 269.717 16.176C270.197 16.8 270.904 17.112 271.837 17.112ZM284.557 18.24C283.715 18.24 282.984 18.0533 282.365 17.68C281.752 17.3067 281.275 16.7813 280.933 16.104C280.592 15.4267 280.421 14.632 280.421 13.72C280.421 12.776 280.589 11.96 280.925 11.272C281.261 10.584 281.733 10.0533 282.341 9.68C282.955 9.30667 283.677 9.12 284.509 9.12C285.363 9.12 286.091 9.31733 286.693 9.712C287.296 10.1013 287.752 10.6613 288.061 11.392C288.371 12.1227 288.512 12.9947 288.485 14.008H287.285V13.592C287.264 12.472 287.021 11.6267 286.557 11.056C286.099 10.4853 285.427 10.2 284.541 10.2C283.613 10.2 282.901 10.5013 282.405 11.104C281.915 11.7067 281.669 12.5653 281.669 13.68C281.669 14.768 281.915 15.6133 282.405 16.216C282.901 16.8133 283.603 17.112 284.509 17.112C285.128 17.112 285.667 16.9707 286.125 16.688C286.589 16.4 286.955 15.9867 287.221 15.448L288.317 15.872C287.976 16.624 287.472 17.208 286.805 17.624C286.144 18.0347 285.395 18.24 284.557 18.24ZM281.253 14.008V13.024H287.853V14.008H281.253ZM292.284 18L289.148 9.36H290.34L292.892 16.464L295.428 9.36H296.636L293.5 18H292.284ZM301.417 18.24C300.574 18.24 299.843 18.0533 299.225 17.68C298.611 17.3067 298.134 16.7813 297.793 16.104C297.451 15.4267 297.281 14.632 297.281 13.72C297.281 12.776 297.449 11.96 297.785 11.272C298.121 10.584 298.593 10.0533 299.201 9.68C299.814 9.30667 300.537 9.12 301.369 9.12C302.222 9.12 302.95 9.31733 303.553 9.712C304.155 10.1013 304.611 10.6613 304.921 11.392C305.23 12.1227 305.371 12.9947 305.345 14.008H304.145V13.592C304.123 12.472 303.881 11.6267 303.417 11.056C302.958 10.4853 302.286 10.2 301.401 10.2C300.473 10.2 299.761 10.5013 299.265 11.104C298.774 11.7067 298.529 12.5653 298.529 13.68C298.529 14.768 298.774 15.6133 299.265 16.216C299.761 16.8133 300.462 17.112 301.369 17.112C301.987 17.112 302.526 16.9707 302.985 16.688C303.449 16.4 303.814 15.9867 304.081 15.448L305.177 15.872C304.835 16.624 304.331 17.208 303.665 17.624C303.003 18.0347 302.254 18.24 301.417 18.24ZM298.113 14.008V13.024H304.713V14.008H298.113ZM307.12 18V9.36H308.176V11.44L307.968 11.168C308.064 10.912 308.189 10.6773 308.344 10.464C308.499 10.2453 308.667 10.0667 308.848 9.928C309.072 9.73067 309.333 9.58133 309.632 9.48C309.931 9.37333 310.232 9.312 310.536 9.296C310.84 9.27467 311.117 9.296 311.368 9.36V10.464C311.053 10.384 310.709 10.3653 310.336 10.408C309.963 10.4507 309.619 10.6 309.304 10.856C309.016 11.08 308.8 11.3493 308.656 11.664C308.512 11.9733 308.416 12.304 308.368 12.656C308.32 13.0027 308.296 13.3467 308.296 13.688V18H307.12ZM314.008 21.84L315.68 17.304L315.704 18.648L311.92 9.36H313.168L316.272 17.128H315.76L318.624 9.36H319.824L315.184 21.84H314.008ZM324.509 18.24C323.651 18.24 322.917 18.0453 322.309 17.656C321.701 17.2667 321.235 16.728 320.909 16.04C320.584 15.352 320.421 14.5627 320.421 13.672C320.421 12.7653 320.587 11.9707 320.917 11.288C321.248 10.6053 321.717 10.0747 322.325 9.696C322.939 9.312 323.667 9.12 324.509 9.12C325.373 9.12 326.109 9.31467 326.717 9.704C327.331 10.088 327.797 10.624 328.117 11.312C328.443 11.9947 328.605 12.7813 328.605 13.672C328.605 14.5787 328.443 15.376 328.117 16.064C327.792 16.7467 327.323 17.28 326.709 17.664C326.096 18.048 325.363 18.24 324.509 18.24ZM324.509 17.112C325.469 17.112 326.184 16.7947 326.653 16.16C327.123 15.52 327.357 14.6907 327.357 13.672C327.357 12.6267 327.12 11.7947 326.645 11.176C326.176 10.5573 325.464 10.248 324.509 10.248C323.864 10.248 323.331 10.3947 322.909 10.688C322.493 10.976 322.181 11.3787 321.973 11.896C321.771 12.408 321.669 13 321.669 13.672C321.669 14.712 321.909 15.5467 322.389 16.176C322.869 16.8 323.576 17.112 324.509 17.112ZM336.61 18V13.592C336.61 13.112 336.565 12.672 336.474 12.272C336.383 11.8667 336.237 11.5147 336.034 11.216C335.837 10.912 335.578 10.6773 335.258 10.512C334.943 10.3467 334.559 10.264 334.106 10.264C333.69 10.264 333.322 10.336 333.002 10.48C332.687 10.624 332.421 10.832 332.202 11.104C331.989 11.3707 331.826 11.696 331.714 12.08C331.602 12.464 331.546 12.9013 331.546 13.392L330.714 13.208C330.714 12.3227 330.869 11.5787 331.178 10.976C331.487 10.3733 331.914 9.91733 332.458 9.608C333.002 9.29867 333.626 9.144 334.33 9.144C334.847 9.144 335.298 9.224 335.682 9.384C336.071 9.544 336.399 9.76 336.666 10.032C336.938 10.304 337.157 10.616 337.322 10.968C337.487 11.3147 337.607 11.6853 337.682 12.08C337.757 12.4693 337.794 12.8587 337.794 13.248V18H336.61ZM330.362 18V9.36H331.426V11.488H331.546V18H330.362ZM343.479 18.24C342.636 18.24 341.906 18.0533 341.287 17.68C340.674 17.3067 340.196 16.7813 339.855 16.104C339.514 15.4267 339.343 14.632 339.343 13.72C339.343 12.776 339.511 11.96 339.847 11.272C340.183 10.584 340.655 10.0533 341.263 9.68C341.876 9.30667 342.599 9.12 343.431 9.12C344.284 9.12 345.012 9.31733 345.615 9.712C346.218 10.1013 346.674 10.6613 346.983 11.392C347.292 12.1227 347.434 12.9947 347.407 14.008H346.207V13.592C346.186 12.472 345.943 11.6267 345.479 11.056C345.02 10.4853 344.348 10.2 343.463 10.2C342.535 10.2 341.823 10.5013 341.327 11.104C340.836 11.7067 340.591 12.5653 340.591 13.68C340.591 14.768 340.836 15.6133 341.327 16.216C341.823 16.8133 342.524 17.112 343.431 17.112C344.05 17.112 344.588 16.9707 345.047 16.688C345.511 16.4 345.876 15.9867 346.143 15.448L347.239 15.872C346.898 16.624 346.394 17.208 345.727 17.624C345.066 18.0347 344.316 18.24 343.479 18.24ZM340.175 14.008V13.024H346.775V14.008H340.175Z" fill="black" fill-opacity="0.85"/>
</g>
<defs>
<clipPath id="clip0_1211_10061">
<rect width="349" height="24" fill="white"/>
</clipPath>
</defs>
</svg>
