<svg width="46" height="47" viewBox="0 0 46 47" fill="none" xmlns="http://www.w3.org/2000/svg">
<path id="Vector" d="M1.18787 41.2389L10.6908 46.703C11.4038 47.099 12.3539 47.099 13.0665 46.703L22.9654 41.0804L32.8643 46.703C33.5773 47.099 34.5274 47.099 35.24 46.703L44.743 41.2389C45.456 40.843 45.9308 40.0511 45.9308 39.1799V27.6179C45.9308 26.7467 45.456 25.9548 44.743 25.5589L34.8441 19.8573V7.82012C34.8441 6.94894 34.3693 6.15703 33.6562 5.76108L24.1533 0.296967C23.4406 -0.0989889 22.4906 -0.0989889 21.7776 0.296967L12.2746 5.76108C11.562 6.15703 11.0868 6.94894 11.0868 7.82012V19.9362L1.18787 25.5589C0.475224 25.9548 0 26.7467 0 27.6179V39.2591C0 40.0511 0.475224 40.843 1.18787 41.2389ZM11.8787 37.4375L10.8493 36.4082C11.0079 36.0915 11.0868 35.6955 11.0868 35.2996V33.9532L10.3741 32.5279C10.2948 32.3694 10.2948 32.2901 10.2948 32.1319V30.627C10.2948 29.7562 11.0079 29.0432 11.8787 29.0432C12.7498 29.0432 13.4625 29.7562 13.4625 30.627V32.1319C13.4625 32.2901 13.4625 32.3694 13.3836 32.4486L12.6706 33.9532V35.2996C12.6706 35.6955 12.7498 36.0122 12.9084 36.4082L11.8787 37.4375ZM14.2544 35.2996V34.2699L14.8089 33.1613C14.9674 32.8446 15.0463 32.4486 15.0463 32.1319V30.627C15.0463 28.885 13.621 27.4594 11.8787 27.4594C10.1367 27.4594 8.71102 28.885 8.71102 30.627V32.1319C8.71102 32.5279 8.79029 32.8446 8.94883 33.1613L9.50293 34.2699V35.2996C9.50293 35.6163 9.26551 35.933 8.94883 36.0915L6.41456 36.8041L6.88978 30.627C7.1272 27.8553 9.50293 25.7967 12.2746 26.0341C14.7296 26.1926 16.7094 28.1724 16.8679 30.627L17.3432 36.8041L14.8089 36.0915C14.4922 35.933 14.2544 35.6163 14.2544 35.2996ZM5.54338 39.2591C5.54338 38.9421 5.78118 38.6254 6.09787 38.4672L9.34478 37.5168C9.42405 37.5168 9.5822 37.4375 9.66147 37.4375L10.7701 38.5461L8.71102 40.6052V43.7728L5.54338 41.9516V39.2591ZM12.2746 45.3566C12.0372 45.5152 11.7205 45.5152 11.4827 45.3566L10.2948 44.644V41.2389L14.0962 37.4375C14.1755 37.5168 14.3337 37.5168 14.4129 37.5168L17.6598 38.4672C17.9765 38.5461 18.214 38.8632 18.214 39.2591V41.9516L12.2746 45.3566ZM26.1331 9.24541C25.3412 8.92872 24.4704 8.92872 23.8366 9.40394L22.9654 9.87917L22.0946 9.40394C21.3816 9.00799 20.5108 8.92872 19.7978 9.24541V7.66158C19.7978 7.18675 20.1149 6.86967 20.5897 6.86967H25.3412C25.8164 6.86967 26.1331 7.18675 26.1331 7.66158V9.24541ZM19.7978 11.6211C19.7978 11.067 20.273 10.5918 20.8275 10.5918C20.9856 10.5918 21.2234 10.6711 21.3816 10.7503L23.0447 11.7797L24.7078 10.7503C25.183 10.4333 25.8164 10.5918 26.0542 11.067C26.1331 11.2252 26.2123 11.3837 26.2123 11.6211V13.3635C26.2123 13.6009 26.1331 13.7595 25.9749 13.918L23.9951 15.8978L22.9654 16.8478L22.0946 15.9767L21.2234 15.1059L20.1149 13.9969C19.9563 13.8387 19.877 13.6802 19.877 13.4428V11.6211H19.7978ZM29.3007 22.1538L24.4704 24.9255L25.7371 21.5993C26.0542 20.7281 25.8164 19.7781 25.183 19.0654L24.0744 17.9564L25.579 16.4519L28.7466 17.4816C29.0633 17.5605 29.3007 17.8775 29.3007 18.1942V22.1538ZM22.9654 19.0654L24.0744 20.174C24.3118 20.4114 24.3911 20.7281 24.2326 21.0452L22.9654 24.4503L21.6987 21.0452C21.6194 20.7281 21.6987 20.4114 21.8568 20.174L22.9654 19.0654ZM20.3523 16.4519L21.8568 17.9564L20.7482 19.0654C20.1149 19.6988 19.877 20.7281 20.1937 21.5993L21.4609 24.9255L16.6301 22.1538V18.3524C16.6301 18.0357 16.8679 17.719 17.1846 17.6397L20.3523 16.4519ZM34.4481 45.3566C34.2107 45.5152 33.894 45.5152 33.6562 45.3566L27.7169 41.9516V38.1502C27.7169 37.8335 27.9547 37.5168 28.2714 37.4375L31.439 36.4082C32.8643 37.8335 35.24 37.8335 36.6657 36.4082L39.8334 37.4375C40.15 37.5168 40.3875 37.8335 40.3875 38.1502V41.9516L34.4481 45.3566ZM30.8845 30.627V30.4689L34.0522 29.8351L37.2198 30.4689V32.5279C37.2198 32.6861 37.1409 32.8446 37.0617 33.0027L35.7945 34.9825C35.0819 35.933 33.7355 36.1704 32.7854 35.3785C32.6269 35.2203 32.4684 35.1411 32.3895 34.9825L31.1223 33.0027C31.0431 32.8446 30.9638 32.6861 30.9638 32.5279V30.627H30.8845ZM37.2198 28.885L34.0522 28.2513L30.8845 28.885V27.4594C30.8845 26.9845 31.2016 26.6674 31.6764 26.6674H37.2198V28.885ZM43.9511 26.9053C44.1889 27.0634 44.347 27.3012 44.347 27.6179V39.2591C44.347 39.5758 44.1889 39.8133 43.9511 39.9718L41.9713 41.0011V38.0713C41.9713 37.0416 41.3379 36.1704 40.3086 35.8537L37.6158 34.9825L38.3288 33.8739C38.5662 33.478 38.7248 33.0027 38.7248 32.5279V25.0836H31.5976C30.2512 25.0836 29.2218 26.1133 29.2218 27.4594V32.5279C29.2218 33.0027 29.38 33.478 29.6178 33.8739L30.3304 34.9825L27.638 35.8537C26.7668 36.1704 26.1331 37.0416 26.1331 38.0713V41.0011L23.7573 39.6551V27.0634C23.9159 26.9845 23.9951 26.9845 24.1533 26.9053L34.0522 21.2826L43.9511 26.9053ZM13.0665 7.10748L22.5695 1.64337C22.8073 1.48483 23.124 1.48483 23.3614 1.64337L32.8643 7.10748C33.1021 7.26563 33.2603 7.50343 33.2603 7.82012V19.9362L30.8845 21.2826V18.3524C30.8845 17.3231 30.2512 16.4519 29.2218 16.1352L26.7668 15.3433L27.0042 15.1059C27.4795 14.6306 27.7169 14.0761 27.7169 13.4428V7.66158C27.7169 6.31557 26.6876 5.28585 25.3412 5.28585H20.5897C19.2437 5.28585 18.214 6.31557 18.214 7.66158V13.3635C18.214 13.9969 18.4518 14.6306 18.927 15.0266L19.1644 15.264L16.7094 16.0559C15.6801 16.3726 15.0463 17.2438 15.0463 18.2735V21.2033L12.6706 19.8573V7.82012C12.6706 7.50343 12.8291 7.26563 13.0665 7.10748ZM1.58382 27.6179C1.58382 27.3012 1.74236 27.0634 1.97978 26.9053L11.8787 21.2826L21.7776 26.9053C21.9361 26.9845 22.0154 26.9845 22.1735 27.0634V39.6551L19.7978 41.0011V39.2591C19.7978 38.5461 19.4811 37.9127 19.0059 37.5168L18.4518 30.4689C18.1351 26.826 14.9674 24.1336 11.4038 24.371C8.15692 24.6088 5.62265 27.2219 5.30596 30.4689L4.75147 37.5168C4.27663 37.992 3.95956 38.6254 3.95956 39.2591V41.0011L1.97978 39.8925C1.74236 39.734 1.58382 39.4966 1.58382 39.1799V27.6179Z" fill="#2E4369"/>
</svg>
