<svg width="42" height="45" viewBox="0 0 42 45" fill="none" xmlns="http://www.w3.org/2000/svg">
<path id="Vector" d="M39.9484 23.7225C39.4497 23.4732 39.1159 23.0041 39.0386 22.4642H39.0576C39.8817 22.4642 40.5523 21.7937 40.5523 20.9696V18.9198C40.5523 18.0957 39.8817 17.4251 39.0576 17.4251H26.0756C25.2515 17.4251 24.5809 18.0957 24.5809 18.9198V20.9696C24.5809 21.7063 25.1173 22.3188 25.8197 22.4407C25.7488 22.9905 25.413 23.4697 24.9071 23.7226C23.8984 24.2269 23.2719 25.2408 23.2719 26.3685V40.8596C23.2719 42.6257 24.7086 44.0625 26.4747 44.0625H38.3806C40.1467 44.0625 41.5834 42.6257 41.5834 40.8596V26.3683C41.5836 25.2407 40.957 24.2268 39.9484 23.7225ZM25.8621 18.9197C25.8621 18.8019 25.9579 18.7062 26.0756 18.7062H39.0577C39.1755 18.7062 39.2712 18.8019 39.2712 18.9197V20.9695C39.2712 21.0873 39.1755 21.183 39.0577 21.183H26.0756C25.9579 21.183 25.8621 21.0873 25.8621 20.9695V18.9197ZM40.3025 40.8596C40.3025 41.9192 39.4404 42.7813 38.3808 42.7813H26.4748C25.4153 42.7813 24.5532 41.9192 24.5532 40.8596V38.5736H40.3025V40.8596ZM40.3025 28.1002H36.6599C36.306 28.1002 36.0193 28.387 36.0193 28.7408C36.0193 29.0946 36.306 29.3814 36.6599 29.3814H40.3025V37.2925H24.5532V29.3814H33.6706C34.0244 29.3814 34.3111 29.0946 34.3111 28.7408C34.3111 28.387 34.0244 28.1002 33.6706 28.1002H24.5532V26.3683C24.5532 25.729 24.9084 25.1542 25.4802 24.8684C26.4161 24.4004 27.0221 23.4935 27.1047 22.4642H37.7507C37.8333 23.4935 38.4394 24.4004 39.3753 24.8684C39.9471 25.1543 40.3023 25.729 40.3023 26.3683L40.3025 28.1002ZM11.7743 22.8306H10.2369C9.60114 22.8306 9.08391 23.3479 9.08391 23.9836V26.5459H6.52165C5.88587 26.5459 5.36864 27.0631 5.36864 27.6989V29.2363C5.36864 29.872 5.88587 30.3893 6.52165 30.3893H9.08391V32.9515C9.08391 33.5873 9.60114 34.1045 10.2369 34.1045H11.7743C12.4101 34.1045 12.9273 33.5873 12.9273 32.9515V30.3893H15.4895C16.1253 30.3893 16.6425 29.872 16.6425 29.2363V27.6989C16.6425 27.0631 16.1253 26.5459 15.4895 26.5459H12.9273V23.9836C12.9273 23.3479 12.4101 22.8306 11.7743 22.8306ZM15.3614 27.827V29.1081H12.5429C12.0484 29.1081 11.6462 29.5104 11.6462 30.0049V32.8234H10.365V30.0049C10.365 29.5104 9.96276 29.1081 9.46824 29.1081H6.64977V27.827H9.46824C9.96276 27.827 10.365 27.4247 10.365 26.9302V24.1117H11.6462V26.9302C11.6462 27.4247 12.0484 27.827 12.5429 27.827H15.3614ZM15.9897 9.06715V7.17749C16.7765 7.09097 17.3908 6.42496 17.3908 5.6181V2.83165C17.3908 1.4541 16.2654 0.333374 14.882 0.333374H7.12899C5.74563 0.333374 4.62021 1.4541 4.62021 2.83165V5.6181C4.62021 6.42504 5.23455 7.09106 6.02133 7.17749V9.06715L1.42645 13.6362C0.775292 14.2836 0.416748 15.1446 0.416748 16.0608V25.9054C0.416748 26.2593 0.703464 26.546 1.05731 26.546C1.41116 26.546 1.69787 26.2593 1.69787 25.9054V20.3856H20.3131V36.5496H1.69787V28.8946C1.69787 28.5408 1.41116 28.2541 1.05731 28.2541C0.703464 28.2541 0.416748 28.5408 0.416748 28.8946V40.6354C0.416748 42.5251 1.96119 44.0625 3.85965 44.0625H18.1515C20.0499 44.0625 21.5944 42.5251 21.5944 40.6354V16.0608C21.5944 15.1447 21.2358 14.2836 20.5847 13.6362L15.9897 9.06715ZM20.3131 40.6354C20.3131 41.8186 19.3434 42.7813 18.1514 42.7813H3.85965C2.6676 42.7813 1.69787 41.8187 1.69787 40.6354V37.8307H20.3131V40.6354ZM5.90133 5.6181V2.83165C5.90133 2.16052 6.45205 1.6145 7.12899 1.6145H14.882C15.559 1.6145 16.1097 2.16052 16.1097 2.83165V5.6181C16.1097 5.77705 15.978 5.90644 15.8161 5.90644H6.19488C6.03303 5.90644 5.90133 5.77705 5.90133 5.6181ZM14.7086 7.18757V8.69298H7.30246V7.18757H14.7086ZM20.3131 19.1044H1.69787V16.0607C1.69787 15.4882 1.92233 14.9497 2.32972 14.5446L6.92615 9.97402H15.0849L19.6814 14.5446C20.0889 14.9497 20.3131 15.4882 20.3131 16.0607V19.1044Z" fill="#2E4369"/>
</svg>
