<svg width="25" height="24" viewBox="0 0 25 24" fill="none" xmlns="http://www.w3.org/2000/svg">
<g id="left-ico">
<path id="Vector" d="M21.5 11H17.56C17.4903 10.9906 17.4197 10.9906 17.35 11H17.18C17.1277 11.0299 17.0776 11.0633 17.03 11.1C16.9743 11.1368 16.9209 11.1769 16.87 11.22C16.8366 11.2609 16.8065 11.3044 16.78 11.35C16.7342 11.413 16.694 11.48 16.66 11.55L15.06 15.96L10.89 4.66005C10.8199 4.467 10.6921 4.3002 10.5239 4.18233C10.3558 4.06445 10.1554 4.00122 9.95 4.00122C9.74463 4.00122 9.54423 4.06445 9.37605 4.18233C9.20788 4.3002 9.08007 4.467 9.01 4.66005L6.7 11H3.5C3.23478 11 2.98043 11.1054 2.79289 11.2929C2.60536 11.4805 2.5 11.7348 2.5 12C2.5 12.2653 2.60536 12.5196 2.79289 12.7072C2.98043 12.8947 3.23478 13 3.5 13H7.42H7.65H7.8C7.85684 12.9727 7.9105 12.9391 7.96 12.9C8.01568 12.8633 8.06911 12.8232 8.12 12.78L8.21 12.65C8.25766 12.5883 8.29794 12.5212 8.33 12.45L9.95 7.92005L14.11 19.34C14.1799 19.5333 14.3076 19.7004 14.4758 19.8185C14.644 19.9366 14.8445 20 15.05 20C15.2555 20 15.456 19.9366 15.6242 19.8185C15.7924 19.7004 15.9201 19.5333 15.99 19.34L18.29 13H21.5C21.7652 13 22.0196 12.8947 22.2071 12.7072C22.3946 12.5196 22.5 12.2653 22.5 12C22.5 11.7348 22.3946 11.4805 22.2071 11.2929C22.0196 11.1054 21.7652 11 21.5 11Z" fill="#1684D4"/>
</g>
</svg>
