<svg width="187" height="42" viewBox="0 0 187 42" fill="none" xmlns="http://www.w3.org/2000/svg">
<path id="Vector 41" d="M185.665 20.99C171.103 19.5284 158 37.4497 132.5 28.8779C115.925 23.306 96.3951 12.5062 81.5946 10.0087M81.5946 10.0087C73.6259 8.66394 67.028 9.72589 63.0001 15.3063C57.8895 22.3865 59.2081 30.5154 65.5001 37.8063C68.8729 41.7146 83.0438 40.8063 85.5001 34.3063C89.6074 23.4371 88.5383 17.9344 81.5946 10.0087ZM81.5946 10.0087C80.9348 9.25557 80.222 8.48061 79.4556 7.67708C73.3647 1.29162 65.0171 0.887403 56.7431 1.01848C33.0203 1.39429 33.5 28.8779 1 20.3061" stroke="#7B8997" stroke-width="2" stroke-linecap="round" stroke-linejoin="round" stroke-dasharray="5 5"/>
</svg>
