<svg width="24" height="24" viewBox="0 0 24 24" fill="none" xmlns="http://www.w3.org/2000/svg">
<g id="left-ico">
<path id="Vector" d="M19 3.99995H17.55C17.4306 3.63526 17.244 3.29611 17 2.99995C16.717 2.68358 16.3702 2.43086 15.9823 2.25848C15.5945 2.0861 15.1744 1.99798 14.75 1.99995H9.27C8.8422 1.99513 8.41832 2.08187 8.02681 2.25435C7.63529 2.42682 7.28519 2.68104 7 2.99995C6.74885 3.2945 6.55547 3.63376 6.43 3.99995H5C4.20435 3.99995 3.44129 4.31602 2.87868 4.87863C2.31607 5.44123 2 6.2043 2 6.99995V18.9999C2 19.7956 2.31607 20.5587 2.87868 21.1213C3.44129 21.6839 4.20435 21.9999 5 21.9999H19C19.7956 21.9999 20.5587 21.6839 21.1213 21.1213C21.6839 20.5587 22 19.7956 22 18.9999V6.99995C22 6.2043 21.6839 5.44123 21.1213 4.87863C20.5587 4.31602 19.7956 3.99995 19 3.99995ZM8.52 4.33995C8.61371 4.23328 8.72906 4.14779 8.85838 4.08916C8.9877 4.03054 9.12802 4.00013 9.27 3.99995H14.73C14.872 4.00013 15.0123 4.03054 15.1416 4.08916C15.2709 4.14779 15.3863 4.23328 15.48 4.33995C15.5744 4.44495 15.6454 4.56874 15.6885 4.70318C15.7316 4.83761 15.7457 4.97965 15.73 5.11995L15.23 9.11995C15.2005 9.36386 15.0823 9.58838 14.8979 9.75069C14.7134 9.91299 14.4757 10.0017 14.23 9.99995H12.59L13.73 7.59995C13.8224 7.36459 13.8223 7.10296 13.7296 6.86772C13.6369 6.63247 13.4585 6.44108 13.2303 6.33208C13.0022 6.22307 12.7412 6.20454 12.4999 6.28022C12.2587 6.3559 12.055 6.52016 11.93 6.73995L10.37 9.99995H9.77C9.52432 10.0017 9.28659 9.91299 9.10215 9.75069C8.91771 9.58838 8.79948 9.36386 8.77 9.11995L8.27 5.11995C8.25425 4.97965 8.26839 4.83761 8.31148 4.70318C8.35457 4.56874 8.42563 4.44495 8.52 4.33995ZM20 18.9999C20 19.2652 19.8946 19.5195 19.7071 19.7071C19.5196 19.8946 19.2652 19.9999 19 19.9999H5C4.73478 19.9999 4.48043 19.8946 4.29289 19.7071C4.10536 19.5195 4 19.2652 4 18.9999V6.99995C4 6.73473 4.10536 6.48038 4.29289 6.29284C4.48043 6.1053 4.73478 5.99995 5 5.99995H6.37L6.79 9.36995C6.88069 10.0999 7.23638 10.771 7.78946 11.2559C8.34255 11.7408 9.05449 12.0056 9.79 11.9999H14.25C14.9855 12.0056 15.6975 11.7408 16.2505 11.2559C16.8036 10.771 17.1593 10.0999 17.25 9.36995L17.63 5.99995H19C19.2652 5.99995 19.5196 6.1053 19.7071 6.29284C19.8946 6.48038 20 6.73473 20 6.99995V18.9999ZM14 15.9999H10C9.73478 15.9999 9.48043 16.1053 9.29289 16.2928C9.10536 16.4804 9 16.7347 9 16.9999C9 17.2652 9.10536 17.5195 9.29289 17.7071C9.48043 17.8946 9.73478 17.9999 10 17.9999H14C14.2652 17.9999 14.5196 17.8946 14.7071 17.7071C14.8946 17.5195 15 17.2652 15 16.9999C15 16.7347 14.8946 16.4804 14.7071 16.2928C14.5196 16.1053 14.2652 15.9999 14 15.9999Z" fill="#1684D4"/>
</g>
</svg>
