<svg width="20" height="20" viewBox="0 0 20 20" fill="none" xmlns="http://www.w3.org/2000/svg">
<path d="M15.8334 3.33325H4.16675C3.50371 3.33325 2.86782 3.59664 2.39898 4.06549C1.93014 4.53433 1.66675 5.17021 1.66675 5.83325V14.1666C1.66675 14.8296 1.93014 15.4655 2.39898 15.9344C2.86782 16.4032 3.50371 16.6666 4.16675 16.6666H15.8334C16.4965 16.6666 17.1323 16.4032 17.6012 15.9344C18.07 15.4655 18.3334 14.8296 18.3334 14.1666V5.83325C18.3334 5.17021 18.07 4.53433 17.6012 4.06549C17.1323 3.59664 16.4965 3.33325 15.8334 3.33325ZM4.16675 4.99992H15.8334C16.0544 4.99992 16.2664 5.08772 16.4227 5.244C16.579 5.40028 16.6667 5.61224 16.6667 5.83325L10.0001 9.89992L3.33341 5.83325C3.33341 5.61224 3.42121 5.40028 3.57749 5.244C3.73377 5.08772 3.94573 4.99992 4.16675 4.99992ZM16.6667 14.1666C16.6667 14.3876 16.579 14.5996 16.4227 14.7558C16.2664 14.9121 16.0544 14.9999 15.8334 14.9999H4.16675C3.94573 14.9999 3.73377 14.9121 3.57749 14.7558C3.42121 14.5996 3.33341 14.3876 3.33341 14.1666V7.73325L9.56675 11.5416C9.69343 11.6147 9.83713 11.6532 9.98341 11.6532C10.1297 11.6532 10.2734 11.6147 10.4001 11.5416L16.6667 7.73325V14.1666Z" fill="#080940"/>
</svg>
