<svg width="22" height="22" viewBox="0 0 22 22" fill="none" xmlns="http://www.w3.org/2000/svg">
<g id="u:play">
<path id="Vector" d="M16.7224 8.37499L8.26994 3.52749C7.81257 3.26338 7.29344 3.12503 6.76529 3.12648C6.23713 3.12793 5.71877 3.26913 5.26285 3.53575C4.80694 3.80237 4.4297 4.1849 4.16947 4.6445C3.90924 5.10409 3.77528 5.62437 3.78119 6.15249V15.8825C3.78119 16.6762 4.09647 17.4373 4.65768 17.9985C5.21888 18.5597 5.98003 18.875 6.77369 18.875C7.29908 18.8741 7.81502 18.7353 8.26994 18.4725L16.7224 13.625C17.1766 13.3621 17.5537 12.9845 17.8158 12.5299C18.078 12.0753 18.216 11.5597 18.216 11.035C18.216 10.5102 18.078 9.9947 17.8158 9.54011C17.5537 9.08552 17.1766 8.70785 16.7224 8.44499V8.37499ZM15.8474 12.0412L7.39494 16.9587C7.20549 17.0661 6.99145 17.1225 6.77369 17.1225C6.55594 17.1225 6.34189 17.0661 6.15244 16.9587C5.96353 16.8497 5.80666 16.6928 5.6976 16.5039C5.58855 16.3149 5.53116 16.1006 5.53119 15.8825V6.11749C5.53116 5.89935 5.58855 5.68505 5.6976 5.49612C5.80666 5.3072 5.96353 5.15031 6.15244 5.04124C6.34267 4.9355 6.55608 4.8784 6.77369 4.87499C6.99116 4.87946 7.20431 4.9365 7.39494 5.04124L15.8474 9.92374C16.0364 10.0328 16.1934 10.1896 16.3025 10.3786C16.4116 10.5675 16.4691 10.7818 16.4691 11C16.4691 11.2182 16.4116 11.4325 16.3025 11.6214C16.1934 11.8104 16.0364 11.9672 15.8474 12.0762V12.0412Z" fill="#23CA8E"/>
</g>
</svg>
